<svg xmlns="http://www.w3.org/2000/svg" viewBox="0 0 64 64"><path fill="#1976d2" d="M60,18.17V45.84A9.17,9.17,0,0,1,50.84,55H13.17A9.18,9.18,0,0,1,4,45.83V18.17A9.18,9.18,0,0,1,13.17,9H50.83A9.18,9.18,0,0,1,60,18.17ZM29.5,42.63l11.59-7a4.3,4.3,0,0,0,0-7.36L29.5,21.37A4.29,4.29,0,0,0,23,25.05V39a4.23,4.23,0,0,0,2.18,3.74,4.33,4.33,0,0,0,2.11.56A4.23,4.23,0,0,0,29.5,42.63ZM27.44,24.8l11.59,7a.29.29,0,0,1,0,.5l-11.59,7A.29.29,0,0,1,27,39V25.05a.28.28,0,0,1,.15-.26.27.27,0,0,1,.14,0A.21.21,0,0,1,27.44,24.8ZM15,27V21a2,2,0,0,0-4,0v6a2,2,0,0,0,4,0Z"/></svg>